<svg xmlns="http://www.w3.org/2000/svg" width="24" height="24" fill="none"><g fill="#212124"><path d="M4.086 1.846v3.698h2.036V1.846H4.086"/><path fill-rule="evenodd" d="M1.846 7.598h17.267a4.79 4.79 0 0 1 3.47 1.506A5.207 5.207 0 0 1 24 12.692c0 1.338-.506 2.63-1.417 3.587a4.79 4.79 0 0 1-3.47 1.507h-1.276c-.83 2.667-3.3 4.601-6.217 4.601H8.362c-3.599 0-6.516-2.943-6.516-6.573V7.598Zm16.29 8.216V9.57h.977c.765 0 1.506.318 2.06.9.554.582.872 1.381.872 2.222 0 .84-.318 1.64-.873 2.222-.553.581-1.294.9-2.059.9h-.977" clip-rule="evenodd"/><path d="M8.973 5.544V1.846h2.036v3.698H8.973M13.86 1.846v3.698h2.036V1.846H13.86"/></g></svg>